<?xml version="1.0" encoding="UTF-8"?>
<svg width="27px" height="26px" viewBox="0 0 27 26" version="1.1" xmlns="http://www.w3.org/2000/svg" xmlns:xlink="http://www.w3.org/1999/xlink">
    <title>icon/nav/login/active</title>
    <g id="icon/nav/login/active" stroke="none" stroke-width="1" fill="none" fill-rule="evenodd">
        <path d="M14.3158628,8.5571302 L9.83514315,8.5571302 L9.83514315,6.77867063 C9.84053091,6.07681965 9.42556852,5.43896731 8.77938253,5.15582627 C8.11911833,4.86145673 7.34545601,4.99130654 6.81906767,5.48484129 L0.556080915,11.7094498 C0.189904681,12.0702445 -0.0109923736,12.5647475 0.000464518843,13.0770852 C0.0136644968,13.5486673 0.219429395,13.9945952 0.570396314,14.3122254 L6.85664559,20.5563969 C7.38696933,21.0138335 8.13446202,21.1279681 8.77848781,20.8498428 C9.42488288,20.5672845 9.84025274,19.929696 9.83514315,19.2278876 L9.83514315,17.4494281 L14.3158628,17.4494281 C15.7982709,17.4494281 17,16.2550629 17,14.7817387 L17,11.2248196 C17,9.75149541 15.7982709,8.5571302 14.3158628,8.5571302 Z M15.2105752,14.7817387 C15.2105752,15.2728468 14.8099988,15.6709685 14.3158628,15.6709685 L9.83514315,15.6709685 C8.84687113,15.6709685 8.04571836,16.467212 8.04571836,17.4494281 L8.084191,19.2634568 L1.82120424,13.0388483 C1.80718469,13.0273964 1.79254948,13.0167099 1.77736333,13.0068361 C1.80330999,12.9837161 1.80330999,12.9837161 8.04571836,6.78222755 L8.04571836,8.56068712 C8.04571836,9.54290322 8.84687113,10.3391467 9.83514315,10.3391467 L14.3158628,10.3391467 C14.8099988,10.3391467 15.2105752,10.7372684 15.2105752,11.2283765 L15.2105752,14.7817387 Z" id="Shape" fill="#424242" fill-rule="nonzero" transform="translate(8.500000, 13.000000) scale(-1, 1) translate(-8.500000, -13.000000) "></path>
        <path d="M16.5999945,26 C16.7325679,26 16.864962,25.9900315 16.9960604,25.9698613 L24.796044,24.7421853 C26.0669493,24.5475776 27.0055269,23.4283168 27,22.1139838 L27,20.9758351 C27,20.4862852 26.6119536,20.0894265 26.1333078,20.0894265 C25.6546621,20.0894265 25.266643,20.4862852 25.266643,20.9758351 L25.266643,22.1139838 C25.2664803,22.551381 24.9543968,22.9232711 24.5317112,22.9897555 L16.7317276,24.2174314 C16.4824595,24.2533608 16.2301236,24.1779017 16.0390418,24.0102892 C15.8479601,23.8426766 15.7365933,23.5991041 15.7333297,23.3416597 L15.7333297,2.65465543 C15.7363112,2.39711066 15.8475981,2.1533555 16.0387517,1.98567994 C16.2299053,1.81800438 16.4824055,1.74265386 16.7317276,1.77888372 L24.5317112,3.00655965 C24.9557377,3.07056638 25.269078,3.44395425 25.266643,3.88233136 L25.266643,5.02048003 C25.266643,5.51002997 25.6546621,5.90688861 26.1333078,5.90688861 C26.6119536,5.90688861 27,5.51002997 27,5.02048003 L27,3.88233136 C27.0058372,2.5675679 26.0666196,1.44798408 24.7951773,1.25412982 L16.9951937,0.0264538833 C16.2471875,-0.0816524774 15.4898731,0.144730751 14.9165249,0.6478283 C14.3431767,1.15092585 14.0092623,1.88206635 14,2.65465543 L14,23.3416597 C14.0154789,24.8035568 15.1706545,25.984655 16.5999945,26 Z" id="Path" fill="#424242" fill-rule="nonzero" transform="translate(20.500000, 13.000000) scale(-1, 1) translate(-20.500000, -13.000000) "></path>
    </g>
</svg>