<?xml version="1.0" encoding="UTF-8"?>
<svg width="27px" height="26px" viewBox="0 0 27 26" version="1.1" xmlns="http://www.w3.org/2000/svg" xmlns:xlink="http://www.w3.org/1999/xlink">
    <title>icon/nav/ExitForm</title>
    <g id="icon/nav/ExitForm" stroke="none" stroke-width="1" fill="none" fill-rule="evenodd">
        <path d="M2.59999454,26 C2.7325679,26 2.86496198,25.9900315 2.99606037,25.9698613 L10.796044,24.7421853 C12.0669493,24.5475776 13.0055269,23.4283168 13,22.1139838 L13,20.9758351 C13,20.4862852 12.6119536,20.0894265 12.1333078,20.0894265 C11.6546621,20.0894265 11.266643,20.4862852 11.266643,20.9758351 L11.266643,22.1139838 C11.2664803,22.551381 10.9543968,22.9232711 10.5317112,22.9897555 L2.73172759,24.2174314 C2.4824595,24.2533608 2.23012364,24.1779017 2.03904185,24.0102892 C1.84796006,23.8426766 1.73659333,23.5991041 1.73332969,23.3416597 L1.73332969,2.65465543 C1.7363112,2.39711066 1.84759806,2.1533555 2.03875168,1.98567994 C2.22990529,1.81800438 2.48240551,1.74265386 2.73172759,1.77888372 L10.5317112,3.00655965 C10.9557377,3.07056638 11.269078,3.44395425 11.266643,3.88233136 L11.266643,5.02048003 C11.266643,5.51002997 11.6546621,5.90688861 12.1333078,5.90688861 C12.6119536,5.90688861 13,5.51002997 13,5.02048003 L13,3.88233136 C13.0058372,2.5675679 12.0666196,1.44798408 10.7951773,1.25412982 L2.99519371,0.0264538833 C2.24718746,-0.0816524774 1.48987313,0.144730751 0.916524935,0.6478283 C0.34317674,1.15092585 0.00926232696,1.88206635 0,2.65465543 L0,23.3416597 C0.0154789277,24.8035568 1.17065447,25.984655 2.59999454,26 Z" id="Path" fill="#848484" fill-rule="nonzero"></path>
        <path d="M26.2226367,14.7817387 C26.2226367,15.2728468 25.8220603,15.6709685 25.3279243,15.6709685 L20.8472046,15.6709685 C19.8589326,15.6709685 19.0577798,16.467212 19.0577798,17.4494281 L19.0962525,19.2634568 L12.8332657,13.0388483 C12.8192461,13.0273964 12.8046109,13.0167099 12.7894248,13.0068361 C12.8153714,12.9837161 12.8153714,12.9837161 19.0577798,6.78222755 L19.0577798,8.56068712 C19.0577798,9.54290322 19.8589326,10.3391467 20.8472046,10.3391467 L25.3279243,10.3391467 C25.8220603,10.3391467 26.2226367,10.7372684 26.2226367,11.2283765 L26.2226367,14.7817387 Z" id="Shape" fill="#848484" fill-rule="nonzero" transform="translate(19.506031, 13.022842) scale(-1, 1) translate(-19.506031, -13.022842) "></path>
        <path d="M3.5,4.5 C3.5,4.5 9.5,6.5 9.5,6.5" id="Line-6" stroke="#979797" stroke-width="1.5" stroke-linecap="round" stroke-linejoin="round" transform="translate(6.500000, 5.500000) rotate(-13.000000) translate(-6.500000, -5.500000) "></path>
        <path d="M3.5,7.5 C3.5,7.5 8.5,9.5 8.5,9.5" id="Line-6-Copy" stroke="#979797" stroke-width="1.5" stroke-linecap="round" stroke-linejoin="round" transform="translate(6.000000, 8.500000) rotate(-17.000000) translate(-6.000000, -8.500000) "></path>
        <path d="M3.5,10.5 C3.5,10.5 7.5,12.5 7.5,12.5" id="Line-6-Copy-2" stroke="#979797" stroke-width="1.5" stroke-linecap="round" stroke-linejoin="round" transform="translate(5.500000, 11.500000) rotate(-23.000000) translate(-5.500000, -11.500000) "></path>
        <path d="M3.5,13.5 C3.5,13.5 6.5,15.5 6.5,15.5" id="Line-6-Copy-3" stroke="#979797" stroke-width="1.5" stroke-linecap="round" stroke-linejoin="round" transform="translate(5.000000, 14.500000) rotate(-33.000000) translate(-5.000000, -14.500000) "></path>
    </g>
</svg>