<?xml version="1.0" encoding="UTF-8"?>
<svg width="27px" height="26px" viewBox="0 0 27 26" version="1.1" xmlns="http://www.w3.org/2000/svg" xmlns:xlink="http://www.w3.org/1999/xlink">
    <title>icon/nav/form/return</title>
    <g id="icon/nav/form/return" stroke="none" stroke-width="1" fill="none" fill-rule="evenodd">
        <path d="M16.5999945,26 C16.7325679,26 16.864962,25.9900315 16.9960604,25.9698613 L24.796044,24.7421853 C26.0669493,24.5475776 27.0055269,23.4283168 27,22.1139838 L27,20.9758351 C27,20.4862852 26.6119536,20.0894265 26.1333078,20.0894265 C25.6546621,20.0894265 25.266643,20.4862852 25.266643,20.9758351 L25.266643,22.1139838 C25.2664803,22.551381 24.9543968,22.9232711 24.5317112,22.9897555 L16.7317276,24.2174314 C16.4824595,24.2533608 16.2301236,24.1779017 16.0390418,24.0102892 C15.8479601,23.8426766 15.7365933,23.5991041 15.7333297,23.3416597 L15.7333297,2.65465543 C15.7363112,2.39711066 15.8475981,2.1533555 16.0387517,1.98567994 C16.2299053,1.81800438 16.4824055,1.74265386 16.7317276,1.77888372 L24.5317112,3.00655965 C24.9557377,3.07056638 25.269078,3.44395425 25.266643,3.88233136 L25.266643,5.02048003 C25.266643,5.51002997 25.6546621,5.90688861 26.1333078,5.90688861 C26.6119536,5.90688861 27,5.51002997 27,5.02048003 L27,3.88233136 C27.0058372,2.5675679 26.0666196,1.44798408 24.7951773,1.25412982 L16.9951937,0.0264538833 C16.2471875,-0.0816524774 15.4898731,0.144730751 14.9165249,0.6478283 C14.3431767,1.15092585 14.0092623,1.88206635 14,2.65465543 L14,23.3416597 C14.0154789,24.8035568 15.1706545,25.984655 16.5999945,26 Z" id="Path" fill="#424242" fill-rule="nonzero" transform="translate(20.500000, 13.000000) scale(-1, 1) translate(-20.500000, -13.000000) "></path>
        <g id="Group" transform="translate(0.000000, 3.000000)" fill="#424242" fill-rule="nonzero">
            <path d="M18.0734145,16 C11.7237933,16 8.06125821,15.317269 5.94471781,13.9274238 C3.95701031,12.6107283 3.40486934,10.7454098 3.33125054,8.25831833 C1.76685111,8.25831833 0,8.47776757 0,7.63654547 C0,7.18545536 3.29444114,3.85714182 3.18401295,3.82056695 L6.239193,0.309379041 C6.60728698,-0.105136198 7.50911724,-0.105136198 7.87721122,0.321570666 L13.9691666,7.33175486 C14.3372606,7.74627009 13.8771431,8.25831833 13.1777646,8.24612671 L13.1777646,8.25831833 L10.8219631,8.25831833 C11.2268665,11.4890989 14.6869499,13.3666091 18.533532,14.8417957 C19.3617435,15.1587779 19.0120542,16 18.0734145,16 L18.0734145,16 Z M7.26985615,13.0496268 C8.65020858,13.9639987 10.9692007,14.5004302 14.742164,14.6833045 C11.31889,13.0008603 8.92627907,10.7941763 8.92627907,7.63654547 C8.92627907,6.84408987 10.4354644,7.01477261 11.558151,7.01477261 L7.04899976,1.85771538 L4.80362647,4.44233981 L4.80362647,4.44233981 L2.55825318,7.01477261 C3.68093982,7.01477261 5.19012515,6.84408987 5.19012515,7.63654547 C5.19012515,10.1236369 5.55821913,11.9279974 7.26985615,13.0496268 Z" id="Shape"></path>
        </g>
    </g>
</svg>